<svg width="24" height="24" viewBox="0 0 24 24" fill="none" xmlns="http://www.w3.org/2000/svg">
<g clip-path="url(#clip0_27_1068)">
<path d="M19.5 0H7.5C6.122 0 5 1.121 5 2.5V21H22V2.5C22 1.121 20.878 0 19.5 0ZM21 20H6V2.5C6 1.673 6.673 1 7.5 1H19.5C20.327 1 21 1.673 21 2.5V20ZM17 8V5.707L14 8.707L12.5 7.207L9.354 10.353L8.647 9.646L12.501 5.792L14.001 7.292L16.294 4.999H14.001V3.999H17.001C17.552 3.999 18.001 4.447 18.001 4.999V7.999H17.001L17 8ZM3 23H19V24H2V6.413C2 5.468 2.386 4.624 3 4V23ZM11.5 13H12.5V17H11.5V13ZM8.5 15H9.5V17H8.5V15ZM14.5 11H15.5V17H14.5V11ZM17.5 13H18.5V17H17.5V13Z" fill="black"/>
</g>
<defs>
<clipPath id="clip0_27_1068">
<rect width="24" height="24" fill="white"/>
</clipPath>
</defs>
</svg>
