<svg width="24" height="24" viewBox="0 0 24 24" fill="none" xmlns="http://www.w3.org/2000/svg">
<g clip-path="url(#clip0_54_1392)">
<path d="M12 8.00002C13.103 8.00002 14 7.10302 14 6.00002C14 4.89702 13.103 4.00002 12 4.00002C10.897 4.00002 10 4.89702 10 6.00002C10 7.10302 10.897 8.00002 12 8.00002ZM12 5.00002C12.552 5.00002 13 5.44802 13 6.00002C13 6.55202 12.552 7.00002 12 7.00002C11.448 7.00002 11 6.55202 11 6.00002C11 5.44802 11.448 5.00002 12 5.00002ZM20 19C21.379 19 22.5 17.879 22.5 16.5C22.5 15.121 21.379 14 20 14C18.621 14 17.5 15.121 17.5 16.5C17.5 17.879 18.621 19 20 19ZM20 15C20.827 15 21.5 15.673 21.5 16.5C21.5 17.327 20.827 18 20 18C19.173 18 18.5 17.327 18.5 16.5C18.5 15.673 19.173 15 20 15ZM1.5 16.5C1.5 17.879 2.621 19 4 19C5.379 19 6.5 17.879 6.5 16.5C6.5 15.121 5.379 14 4 14C2.621 14 1.5 15.121 1.5 16.5ZM5.5 16.5C5.5 17.327 4.827 18 4 18C3.173 18 2.5 17.327 2.5 16.5C2.5 15.673 3.173 15 4 15C4.827 15 5.5 15.673 5.5 16.5ZM23.956 23.424C23.998 23.697 23.772 23.958 23.5 24C23.258 24 23.006 23.823 22.968 23.576C22.743 22.107 21.36 21 19.75 21C18.14 21 16.757 22.107 16.532 23.576C16.495 23.82 16.24 23.994 16 24C15.76 24 15.507 23.826 15.467 23.581C15.226 22.109 13.736 21 12 21C10.264 21 8.774 22.109 8.533 23.581C8.493 23.824 8.233 23.998 8 24C7.758 24 7.506 23.823 7.468 23.576C7.243 22.107 5.86 21 4.25 21C2.64 21 1.257 22.107 1.032 23.576C0.99 23.849 0.74 24.035 0.462 23.994C0.19 23.952 0.002 23.697 0.044 23.424C0.343 21.472 2.151 20 4.25 20C5.863 20 7.298 20.874 8.014 22.163C8.773 20.874 10.292 20 12 20C13.708 20 15.227 20.874 15.986 22.163C16.702 20.874 18.137 20 19.75 20C21.849 20 23.657 21.472 23.956 23.424ZM24 9.50002V12.5C24 12.776 23.776 13 23.5 13C23.224 13 23 12.776 23 12.5V9.50002C23 8.12102 21.879 7.00002 20.5 7.00002H19.5C19.224 7.00002 19 6.77602 19 6.50002C19 6.22402 19.224 6.00002 19.5 6.00002H20.5C22.43 6.00002 24 7.57002 24 9.50002ZM6.669 7.90302C6.568 8.29202 6.625 8.69502 6.827 9.04002C7.03 9.38602 7.355 9.63202 7.743 9.73202C8.132 9.83602 8.535 9.77702 8.882 9.57302L9.105 9.44202C9.512 9.78202 9.986 10.048 10.501 10.228V10.499C10.501 11.326 11.174 11.999 12.001 11.999C12.828 11.999 13.501 11.326 13.501 10.499V10.228C14.016 10.048 14.489 9.78202 14.897 9.44202L15.12 9.57302C15.467 9.77702 15.87 9.83602 16.259 9.73202C16.647 9.63102 16.972 9.38502 17.174 9.04102C17.377 8.69502 17.434 8.29202 17.333 7.90302C17.232 7.51502 16.986 7.19002 16.641 6.98602L16.409 6.84902C16.472 6.55002 16.503 6.27402 16.503 5.99902C16.503 5.72402 16.473 5.44802 16.408 5.14802L16.641 5.01102C16.987 4.80802 17.233 4.48302 17.333 4.09502C17.434 3.70602 17.377 3.30302 17.175 2.95802C16.972 2.61202 16.647 2.36602 16.259 2.26602C15.87 2.16302 15.467 2.22102 15.12 2.42502L14.897 2.55602C14.49 2.21602 14.016 1.95002 13.501 1.77002V1.49902C13.501 0.672023 12.828 -0.000976562 12.001 -0.000976562C11.174 -0.000976562 10.501 0.672023 10.501 1.49902V1.77002C9.986 1.95002 9.513 2.21602 9.105 2.55602L8.882 2.42502C8.535 2.22102 8.132 2.16302 7.743 2.26602C7.355 2.36702 7.03 2.61302 6.828 2.95702C6.625 3.30302 6.568 3.70602 6.669 4.09502C6.77 4.48302 7.016 4.80802 7.36 5.01002L7.594 5.14802C7.53 5.44802 7.499 5.72402 7.499 5.99902C7.499 6.27402 7.529 6.55002 7.593 6.84902L7.36 6.98702C7.015 7.19002 6.769 7.51502 6.669 7.90302ZM8.65 6.95502C8.547 6.59402 8.5 6.29002 8.5 6.00002C8.5 5.71002 8.548 5.40602 8.65 5.04502C8.712 4.82602 8.62 4.59302 8.423 4.47802L7.866 4.15002C7.751 4.08302 7.669 3.97402 7.636 3.84502C7.603 3.71602 7.621 3.58102 7.69 3.46602C7.757 3.35102 7.865 3.26902 7.995 3.23602C8.125 3.20202 8.259 3.22102 8.374 3.28902L8.914 3.60702C9.111 3.72302 9.362 3.69202 9.521 3.53002C9.952 3.09802 10.505 2.78702 11.125 2.62702C11.346 2.56902 11.5 2.37002 11.5 2.14302V1.50102C11.5 1.22602 11.725 1.00102 12 1.00102C12.275 1.00102 12.5 1.22602 12.5 1.50102V2.14302C12.5 2.37102 12.654 2.57002 12.875 2.62702C13.494 2.78702 14.048 3.09902 14.479 3.53002C14.639 3.69102 14.889 3.72202 15.086 3.60702L15.626 3.28902C15.74 3.22202 15.875 3.20302 16.005 3.23602C16.135 3.26902 16.242 3.35102 16.311 3.46702C16.378 3.58102 16.397 3.71602 16.364 3.84502C16.331 3.97402 16.249 4.08202 16.133 4.15102L15.577 4.47802C15.381 4.59302 15.288 4.82702 15.35 5.04502C15.453 5.40602 15.5 5.71002 15.5 6.00002C15.5 6.29002 15.452 6.59402 15.35 6.95502C15.288 7.17402 15.381 7.40702 15.578 7.52302L16.133 7.84802C16.249 7.91602 16.331 8.02502 16.364 8.15502C16.397 8.28402 16.379 8.41902 16.31 8.53402C16.243 8.64902 16.135 8.73102 16.005 8.76402C15.873 8.79702 15.741 8.77902 15.626 8.71102L15.086 8.39302C14.89 8.27802 14.64 8.30902 14.479 8.47002C14.048 8.90202 13.495 9.21302 12.875 9.37302C12.654 9.43102 12.5 9.63002 12.5 9.85702V10.499C12.5 10.774 12.275 10.999 12 10.999C11.725 10.999 11.5 10.774 11.5 10.499V9.85702C11.5 9.62902 11.346 9.43002 11.125 9.37302C10.506 9.21302 9.952 8.90102 9.521 8.47002C9.425 8.37302 9.296 8.32402 9.167 8.32402C9.08 8.32402 8.992 8.34602 8.913 8.39302L8.373 8.71102C8.26 8.77802 8.126 8.79802 7.994 8.76402C7.864 8.73102 7.757 8.64902 7.688 8.53302C7.621 8.41902 7.602 8.28402 7.635 8.15502C7.668 8.02502 7.75 7.91702 7.865 7.84902L8.421 7.52302C8.617 7.40702 8.712 7.17302 8.65 6.95502ZM0 12.5V9.50002C0 7.57002 1.57 6.00002 3.5 6.00002H4.5C4.776 6.00002 5 6.22402 5 6.50002C5 6.77602 4.776 7.00002 4.5 7.00002H3.5C2.121 7.00002 1 8.12102 1 9.50002V12.5C1 12.776 0.776 13 0.5 13C0.224 13 0 12.776 0 12.5ZM9.5 16.5C9.5 17.879 10.621 19 12 19C13.379 19 14.5 17.879 14.5 16.5C14.5 15.121 13.379 14 12 14C10.621 14 9.5 15.121 9.5 16.5ZM13.5 16.5C13.5 17.327 12.827 18 12 18C11.173 18 10.5 17.327 10.5 16.5C10.5 15.673 11.173 15 12 15C12.827 15 13.5 15.673 13.5 16.5Z" fill="black"/>
</g>
<defs>
<clipPath id="clip0_54_1392">
<rect width="24" height="24" fill="white"/>
</clipPath>
</defs>
</svg>
