<svg width="24" height="24" viewBox="0 0 24 24" fill="none" xmlns="http://www.w3.org/2000/svg">
<path d="M14.4726 5.28571C15.252 5.9609 15.7869 6.85585 15.9489 7.85714H21.091C21.4926 7.85714 21.8182 8.14496 21.8182 8.5C21.8182 8.85504 21.4926 9.14286 21.091 9.14286H15.9489C15.5961 11.3236 13.4745 13 10.91 13H6.84796L15.7875 20.9026C16.0715 21.1536 16.0715 21.5607 15.7875 21.8117C15.5035 22.0628 15.0431 22.0628 14.7591 21.8117L4.5781 12.8117C4.11998 12.4067 4.44444 11.7143 5.09232 11.7143H10.91C12.6691 11.7143 14.1364 10.61 14.4733 9.14286H5.09232C4.69069 9.14286 4.36511 8.85504 4.36511 8.5C4.36511 8.14496 4.69069 7.85714 5.09232 7.85714H14.4733C14.1364 6.38999 12.6691 5.28571 10.91 5.28571H5.09232C4.69069 5.28571 4.36511 4.9979 4.36511 4.64286C4.36511 4.28782 4.69069 4 5.09232 4H10.91H21.091C21.4926 4 21.8182 4.28782 21.8182 4.64286C21.8182 4.9979 21.4926 5.28571 21.091 5.28571H14.4726Z" fill="#302F2F"/>
</svg>
