<svg width="40" height="42" viewBox="0 0 40 42" fill="none" xmlns="http://www.w3.org/2000/svg">
<rect width="40" height="42" rx="8" fill="black"/>
<path d="M16.5 25H23.5C25.43 25 27 23.43 27 21.5V12.5C27 10.57 25.43 9 23.5 9H16.5C14.57 9 13 10.57 13 12.5V21.5C13 23.43 14.57 25 16.5 25ZM14 12.5C14 11.122 15.121 10 16.5 10H23.5C24.879 10 26 11.122 26 12.5V21.5C26 22.878 24.879 24 23.5 24H16.5C15.121 24 14 22.878 14 21.5V12.5ZM32 15.5V24.5C32 26.981 29.981 29 27.5 29H20.5V32H25.5C25.776 32 26 32.224 26 32.5C26 32.776 25.776 33 25.5 33H14.5C14.224 33 14 32.776 14 32.5C14 32.224 14.224 32 14.5 32H19.5V29H12.5C10.019 29 8 26.981 8 24.5V15.5C8 13.898 8.862 12.405 10.25 11.603C10.485 11.464 10.793 11.545 10.933 11.785C11.072 12.024 10.99 12.33 10.75 12.468C9.671 13.093 9 14.255 9 15.5V24.5C9 26.43 10.57 28 12.5 28H27.5C29.43 28 31 26.43 31 24.5V15.5C31 14.254 30.329 13.092 29.25 12.468C29.011 12.33 28.929 12.024 29.067 11.785C29.205 11.546 29.514 11.465 29.75 11.603C31.138 12.405 32 13.899 32 15.5ZM16 14C16 13.448 16.448 13 17 13C17.552 13 18 13.448 18 14C18 14.552 17.552 15 17 15C16.448 15 16 14.552 16 14ZM23 19C23.552 19 24 19.448 24 20C24 20.552 23.552 21 23 21C22.448 21 22 20.552 22 20C22 19.448 22.448 19 23 19ZM17.565 20.252L21.565 13.252C21.703 13.01 22.009 12.929 22.248 13.066C22.488 13.203 22.571 13.508 22.435 13.748L18.435 20.748C18.296 20.99 17.988 21.07 17.752 20.934C17.512 20.797 17.429 20.492 17.565 20.252Z" fill="white"/>
</svg>
