<svg width="24" height="24" viewBox="0 0 24 24" fill="none" xmlns="http://www.w3.org/2000/svg">
<path d="M8.5 16H15.5C17.43 16 19 14.43 19 12.5V3.5C19 1.57 17.43 0 15.5 0H8.5C6.57 0 5 1.57 5 3.5V12.5C5 14.43 6.57 16 8.5 16ZM6 3.5C6 2.122 7.121 1 8.5 1H15.5C16.879 1 18 2.122 18 3.5V12.5C18 13.878 16.879 15 15.5 15H8.5C7.121 15 6 13.878 6 12.5V3.5ZM24 6.5V15.5C24 17.981 21.981 20 19.5 20H12.5V23H17.5C17.776 23 18 23.224 18 23.5C18 23.776 17.776 24 17.5 24H6.5C6.224 24 6 23.776 6 23.5C6 23.224 6.224 23 6.5 23H11.5V20H4.5C2.019 20 0 17.981 0 15.5V6.5C0 4.898 0.862 3.405 2.25 2.603C2.485 2.464 2.793 2.545 2.933 2.785C3.072 3.024 2.99 3.33 2.75 3.468C1.671 4.093 1 5.255 1 6.5V15.5C1 17.43 2.57 19 4.5 19H19.5C21.43 19 23 17.43 23 15.5V6.5C23 5.254 22.329 4.092 21.25 3.468C21.011 3.33 20.929 3.024 21.067 2.785C21.205 2.546 21.514 2.465 21.75 2.603C23.138 3.405 24 4.899 24 6.5ZM8 5C8 4.448 8.448 4 9 4C9.552 4 10 4.448 10 5C10 5.552 9.552 6 9 6C8.448 6 8 5.552 8 5ZM15 10C15.552 10 16 10.448 16 11C16 11.552 15.552 12 15 12C14.448 12 14 11.552 14 11C14 10.448 14.448 10 15 10ZM9.565 11.252L13.565 4.252C13.703 4.01 14.009 3.929 14.248 4.066C14.488 4.203 14.571 4.508 14.435 4.748L10.435 11.748C10.296 11.99 9.988 12.07 9.752 11.934C9.512 11.797 9.429 11.492 9.565 11.252Z" fill="white"/>
</svg>
